<svg width="631" height="379" viewBox="0 0 631 379" fill="none" xmlns="http://www.w3.org/2000/svg">
<rect width="631" height="379" rx="10" fill="url(#paint0_linear_113_420)"/>
<path d="M49.12 257.28H40.16V252H64.56V257.28H55.6V280H49.12V257.28ZM80.6866 258.16C83.3532 258.16 85.4999 258.96 87.1266 260.56C88.7799 262.16 89.6066 264.533 89.6066 267.68V280H83.3666V268.64C83.3666 266.933 82.9932 265.667 82.2466 264.84C81.4999 263.987 80.4199 263.56 79.0066 263.56C77.4332 263.56 76.1799 264.053 75.2466 265.04C74.3132 266 73.8466 267.44 73.8466 269.36V280H67.6066V250.32H73.8466V260.72C74.6732 259.893 75.6732 259.267 76.8466 258.84C78.0199 258.387 79.2999 258.16 80.6866 258.16ZM95.2628 258.48H101.503V280H95.2628V258.48ZM98.3828 255.48C97.2361 255.48 96.3028 255.147 95.5828 254.48C94.8628 253.813 94.5028 252.987 94.5028 252C94.5028 251.013 94.8628 250.187 95.5828 249.52C96.3028 248.853 97.2361 248.52 98.3828 248.52C99.5295 248.52 100.463 248.84 101.183 249.48C101.903 250.12 102.263 250.92 102.263 251.88C102.263 252.92 101.903 253.787 101.183 254.48C100.463 255.147 99.5295 255.48 98.3828 255.48ZM120.374 258.16C123.041 258.16 125.187 258.96 126.814 260.56C128.467 262.16 129.294 264.533 129.294 267.68V280H123.054V268.64C123.054 266.933 122.681 265.667 121.934 264.84C121.187 263.987 120.107 263.56 118.694 263.56C117.121 263.56 115.867 264.053 114.934 265.04C114.001 266 113.534 267.44 113.534 269.36V280H107.294V258.48H113.254V261C114.081 260.093 115.107 259.4 116.334 258.92C117.561 258.413 118.907 258.16 120.374 258.16ZM153.198 257.2V264.6H166.158V269.8H153.198V280H146.718V252H167.878V257.2H153.198ZM171.435 258.48H177.675V280H171.435V258.48ZM174.555 255.48C173.408 255.48 172.475 255.147 171.755 254.48C171.035 253.813 170.675 252.987 170.675 252C170.675 251.013 171.035 250.187 171.755 249.52C172.475 248.853 173.408 248.52 174.555 248.52C175.701 248.52 176.635 248.84 177.355 249.48C178.075 250.12 178.435 250.92 178.435 251.88C178.435 252.92 178.075 253.787 177.355 254.48C176.635 255.147 175.701 255.48 174.555 255.48ZM183.466 250.32H189.706V280H183.466V250.32ZM223.057 258.16C225.751 258.16 227.884 258.96 229.457 260.56C231.057 262.133 231.857 264.507 231.857 267.68V280H225.617V268.64C225.617 266.933 225.257 265.667 224.537 264.84C223.844 263.987 222.844 263.56 221.537 263.56C220.071 263.56 218.911 264.04 218.057 265C217.204 265.933 216.777 267.333 216.777 269.2V280H210.537V268.64C210.537 265.253 209.177 263.56 206.457 263.56C205.017 263.56 203.871 264.04 203.017 265C202.164 265.933 201.737 267.333 201.737 269.2V280H195.497V258.48H201.457V260.96C202.257 260.053 203.231 259.36 204.377 258.88C205.551 258.4 206.831 258.16 208.217 258.16C209.737 258.16 211.111 258.467 212.337 259.08C213.564 259.667 214.551 260.533 215.297 261.68C216.177 260.56 217.284 259.693 218.617 259.08C219.977 258.467 221.457 258.16 223.057 258.16ZM274.698 280L274.658 263.2L266.418 277.04H263.498L255.298 263.56V280H249.218V252H254.578L265.058 269.4L275.378 252H280.698L280.778 280H274.698ZM308.062 269.32C308.062 269.4 308.022 269.96 307.942 271H291.662C291.955 272.333 292.648 273.387 293.742 274.16C294.835 274.933 296.195 275.32 297.822 275.32C298.942 275.32 299.928 275.16 300.782 274.84C301.662 274.493 302.475 273.96 303.222 273.24L306.542 276.84C304.515 279.16 301.555 280.32 297.662 280.32C295.235 280.32 293.088 279.853 291.222 278.92C289.355 277.96 287.915 276.64 286.902 274.96C285.888 273.28 285.382 271.373 285.382 269.24C285.382 267.133 285.875 265.24 286.862 263.56C287.875 261.853 289.248 260.533 290.982 259.6C292.742 258.64 294.702 258.16 296.862 258.16C298.968 258.16 300.875 258.613 302.582 259.52C304.288 260.427 305.622 261.733 306.582 263.44C307.568 265.12 308.062 267.08 308.062 269.32ZM296.902 262.88C295.488 262.88 294.302 263.28 293.342 264.08C292.382 264.88 291.795 265.973 291.582 267.36H302.182C301.968 266 301.382 264.92 300.422 264.12C299.462 263.293 298.288 262.88 296.902 262.88ZM319.456 280.32C317.669 280.32 315.923 280.107 314.216 279.68C312.509 279.227 311.149 278.667 310.136 278L312.216 273.52C313.176 274.133 314.336 274.64 315.696 275.04C317.056 275.413 318.389 275.6 319.696 275.6C322.336 275.6 323.656 274.947 323.656 273.64C323.656 273.027 323.296 272.587 322.576 272.32C321.856 272.053 320.749 271.827 319.256 271.64C317.496 271.373 316.043 271.067 314.896 270.72C313.749 270.373 312.749 269.76 311.896 268.88C311.069 268 310.656 266.747 310.656 265.12C310.656 263.76 311.043 262.56 311.816 261.52C312.616 260.453 313.763 259.627 315.256 259.04C316.776 258.453 318.563 258.16 320.616 258.16C322.136 258.16 323.643 258.333 325.136 258.68C326.656 259 327.909 259.453 328.896 260.04L326.816 264.48C324.923 263.413 322.856 262.88 320.616 262.88C319.283 262.88 318.283 263.067 317.616 263.44C316.949 263.813 316.616 264.293 316.616 264.88C316.616 265.547 316.976 266.013 317.696 266.28C318.416 266.547 319.563 266.8 321.136 267.04C322.896 267.333 324.336 267.653 325.456 268C326.576 268.32 327.549 268.92 328.376 269.8C329.203 270.68 329.616 271.907 329.616 273.48C329.616 274.813 329.216 276 328.416 277.04C327.616 278.08 326.443 278.893 324.896 279.48C323.376 280.04 321.563 280.32 319.456 280.32ZM343.706 280.32C341.439 280.32 339.399 279.853 337.586 278.92C335.799 277.96 334.399 276.64 333.386 274.96C332.373 273.28 331.866 271.373 331.866 269.24C331.866 267.107 332.373 265.2 333.386 263.52C334.399 261.84 335.799 260.533 337.586 259.6C339.399 258.64 341.439 258.16 343.706 258.16C345.973 258.16 347.999 258.64 349.786 259.6C351.573 260.533 352.973 261.84 353.986 263.52C354.999 265.2 355.506 267.107 355.506 269.24C355.506 271.373 354.999 273.28 353.986 274.96C352.973 276.64 351.573 277.96 349.786 278.92C347.999 279.853 345.973 280.32 343.706 280.32ZM343.706 275.2C345.306 275.2 346.613 274.667 347.626 273.6C348.666 272.507 349.186 271.053 349.186 269.24C349.186 267.427 348.666 265.987 347.626 264.92C346.613 263.827 345.306 263.28 343.706 263.28C342.106 263.28 340.786 263.827 339.746 264.92C338.706 265.987 338.186 267.427 338.186 269.24C338.186 271.053 338.706 272.507 339.746 273.6C340.786 274.667 342.106 275.2 343.706 275.2ZM366.917 280.32C365.13 280.32 363.384 280.107 361.677 279.68C359.97 279.227 358.61 278.667 357.597 278L359.677 273.52C360.637 274.133 361.797 274.64 363.157 275.04C364.517 275.413 365.85 275.6 367.157 275.6C369.797 275.6 371.117 274.947 371.117 273.64C371.117 273.027 370.757 272.587 370.037 272.32C369.317 272.053 368.21 271.827 366.717 271.64C364.957 271.373 363.504 271.067 362.357 270.72C361.21 270.373 360.21 269.76 359.357 268.88C358.53 268 358.117 266.747 358.117 265.12C358.117 263.76 358.504 262.56 359.277 261.52C360.077 260.453 361.224 259.627 362.717 259.04C364.237 258.453 366.024 258.16 368.077 258.16C369.597 258.16 371.104 258.333 372.597 258.68C374.117 259 375.37 259.453 376.357 260.04L374.277 264.48C372.384 263.413 370.317 262.88 368.077 262.88C366.744 262.88 365.744 263.067 365.077 263.44C364.41 263.813 364.077 264.293 364.077 264.88C364.077 265.547 364.437 266.013 365.157 266.28C365.877 266.547 367.024 266.8 368.597 267.04C370.357 267.333 371.797 267.653 372.917 268C374.037 268.32 375.01 268.92 375.837 269.8C376.664 270.68 377.077 271.907 377.077 273.48C377.077 274.813 376.677 276 375.877 277.04C375.077 278.08 373.904 278.893 372.357 279.48C370.837 280.04 369.024 280.32 366.917 280.32ZM391.327 280.32C389.034 280.32 386.967 279.853 385.127 278.92C383.314 277.96 381.887 276.64 380.847 274.96C379.834 273.28 379.327 271.373 379.327 269.24C379.327 267.107 379.834 265.2 380.847 263.52C381.887 261.84 383.314 260.533 385.127 259.6C386.967 258.64 389.034 258.16 391.327 258.16C393.594 258.16 395.567 258.64 397.247 259.6C398.954 260.533 400.194 261.88 400.967 263.64L396.127 266.24C395.007 264.267 393.394 263.28 391.287 263.28C389.66 263.28 388.314 263.813 387.247 264.88C386.18 265.947 385.647 267.4 385.647 269.24C385.647 271.08 386.18 272.533 387.247 273.6C388.314 274.667 389.66 275.2 391.287 275.2C393.42 275.2 395.034 274.213 396.127 272.24L400.967 274.88C400.194 276.587 398.954 277.92 397.247 278.88C395.567 279.84 393.594 280.32 391.327 280.32ZM414.526 280.32C412.26 280.32 410.22 279.853 408.406 278.92C406.62 277.96 405.22 276.64 404.206 274.96C403.193 273.28 402.686 271.373 402.686 269.24C402.686 267.107 403.193 265.2 404.206 263.52C405.22 261.84 406.62 260.533 408.406 259.6C410.22 258.64 412.26 258.16 414.526 258.16C416.793 258.16 418.82 258.64 420.606 259.6C422.393 260.533 423.793 261.84 424.806 263.52C425.82 265.2 426.326 267.107 426.326 269.24C426.326 271.373 425.82 273.28 424.806 274.96C423.793 276.64 422.393 277.96 420.606 278.92C418.82 279.853 416.793 280.32 414.526 280.32ZM414.526 275.2C416.126 275.2 417.433 274.667 418.446 273.6C419.486 272.507 420.006 271.053 420.006 269.24C420.006 267.427 419.486 265.987 418.446 264.92C417.433 263.827 416.126 263.28 414.526 263.28C412.926 263.28 411.606 263.827 410.566 264.92C409.526 265.987 409.006 267.427 409.006 269.24C409.006 271.053 409.526 272.507 410.566 273.6C411.606 274.667 412.926 275.2 414.526 275.2ZM443.217 258.16C445.217 258.16 447.031 258.627 448.657 259.56C450.311 260.467 451.604 261.76 452.537 263.44C453.471 265.093 453.937 267.027 453.937 269.24C453.937 271.453 453.471 273.4 452.537 275.08C451.604 276.733 450.311 278.027 448.657 278.96C447.031 279.867 445.217 280.32 443.217 280.32C440.471 280.32 438.311 279.453 436.737 277.72V287.76H430.497V258.48H436.457V260.96C438.004 259.093 440.257 258.16 443.217 258.16ZM442.137 275.2C443.737 275.2 445.044 274.667 446.057 273.6C447.097 272.507 447.617 271.053 447.617 269.24C447.617 267.427 447.097 265.987 446.057 264.92C445.044 263.827 443.737 263.28 442.137 263.28C440.537 263.28 439.217 263.827 438.177 264.92C437.164 265.987 436.657 267.427 436.657 269.24C436.657 271.053 437.164 272.507 438.177 273.6C439.217 274.667 440.537 275.2 442.137 275.2ZM458.114 258.48H464.354V280H458.114V258.48ZM461.234 255.48C460.088 255.48 459.154 255.147 458.434 254.48C457.714 253.813 457.354 252.987 457.354 252C457.354 251.013 457.714 250.187 458.434 249.52C459.154 248.853 460.088 248.52 461.234 248.52C462.381 248.52 463.314 248.84 464.034 249.48C464.754 250.12 465.114 250.92 465.114 251.88C465.114 252.92 464.754 253.787 464.034 254.48C463.314 255.147 462.381 255.48 461.234 255.48ZM480.546 280.32C478.252 280.32 476.186 279.853 474.346 278.92C472.532 277.96 471.106 276.64 470.066 274.96C469.052 273.28 468.546 271.373 468.546 269.24C468.546 267.107 469.052 265.2 470.066 263.52C471.106 261.84 472.532 260.533 474.346 259.6C476.186 258.64 478.252 258.16 480.546 258.16C482.812 258.16 484.786 258.64 486.466 259.6C488.172 260.533 489.412 261.88 490.186 263.64L485.346 266.24C484.226 264.267 482.612 263.28 480.506 263.28C478.879 263.28 477.532 263.813 476.466 264.88C475.399 265.947 474.866 267.4 474.866 269.24C474.866 271.08 475.399 272.533 476.466 273.6C477.532 274.667 478.879 275.2 480.506 275.2C482.639 275.2 484.252 274.213 485.346 272.24L490.186 274.88C489.412 276.587 488.172 277.92 486.466 278.88C484.786 279.84 482.812 280.32 480.546 280.32ZM52.52 329.48C50.3067 329.48 48.16 329.187 46.08 328.6C44.0267 327.987 42.3733 327.2 41.12 326.24L43.32 321.36C44.52 322.24 45.9467 322.947 47.6 323.48C49.2533 324.013 50.9067 324.28 52.56 324.28C54.4 324.28 55.76 324.013 56.64 323.48C57.52 322.92 57.96 322.187 57.96 321.28C57.96 320.613 57.6933 320.067 57.16 319.64C56.6533 319.187 55.9867 318.827 55.16 318.56C54.36 318.293 53.2667 318 51.88 317.68C49.7467 317.173 48 316.667 46.64 316.16C45.28 315.653 44.1067 314.84 43.12 313.72C42.16 312.6 41.68 311.107 41.68 309.24C41.68 307.613 42.12 306.147 43 304.84C43.88 303.507 45.2 302.453 46.96 301.68C48.7467 300.907 50.92 300.52 53.48 300.52C55.2667 300.52 57.0133 300.733 58.72 301.16C60.4267 301.587 61.92 302.2 63.2 303L61.2 307.92C58.6133 306.453 56.0267 305.72 53.44 305.72C51.6267 305.72 50.28 306.013 49.4 306.6C48.5467 307.187 48.12 307.96 48.12 308.92C48.12 309.88 48.6133 310.6 49.6 311.08C50.6133 311.533 52.1467 311.987 54.2 312.44C56.3333 312.947 58.08 313.453 59.44 313.96C60.8 314.467 61.96 315.267 62.92 316.36C63.9067 317.453 64.4 318.933 64.4 320.8C64.4 322.4 63.9467 323.867 63.04 325.2C62.16 326.507 60.8267 327.547 59.04 328.32C57.2533 329.093 55.08 329.48 52.52 329.48ZM78.6278 329.32C76.3611 329.32 74.3211 328.853 72.5078 327.92C70.7211 326.96 69.3211 325.64 68.3078 323.96C67.2945 322.28 66.7878 320.373 66.7878 318.24C66.7878 316.107 67.2945 314.2 68.3078 312.52C69.3211 310.84 70.7211 309.533 72.5078 308.6C74.3211 307.64 76.3611 307.16 78.6278 307.16C80.8945 307.16 82.9211 307.64 84.7078 308.6C86.4945 309.533 87.8945 310.84 88.9078 312.52C89.9211 314.2 90.4278 316.107 90.4278 318.24C90.4278 320.373 89.9211 322.28 88.9078 323.96C87.8945 325.64 86.4945 326.96 84.7078 327.92C82.9211 328.853 80.8945 329.32 78.6278 329.32ZM78.6278 324.2C80.2278 324.2 81.5345 323.667 82.5478 322.6C83.5878 321.507 84.1078 320.053 84.1078 318.24C84.1078 316.427 83.5878 314.987 82.5478 313.92C81.5345 312.827 80.2278 312.28 78.6278 312.28C77.0278 312.28 75.7078 312.827 74.6678 313.92C73.6278 314.987 73.1078 316.427 73.1078 318.24C73.1078 320.053 73.6278 321.507 74.6678 322.6C75.7078 323.667 77.0278 324.2 78.6278 324.2ZM94.5988 299.32H100.839V329H94.5988V299.32ZM115.31 307.16C118.643 307.16 121.203 307.96 122.99 309.56C124.777 311.133 125.67 313.52 125.67 316.72V329H119.83V326.32C118.657 328.32 116.47 329.32 113.27 329.32C111.617 329.32 110.177 329.04 108.95 328.48C107.75 327.92 106.83 327.147 106.19 326.16C105.55 325.173 105.23 324.053 105.23 322.8C105.23 320.8 105.977 319.227 107.47 318.08C108.99 316.933 111.323 316.36 114.47 316.36H119.43C119.43 315 119.017 313.96 118.19 313.24C117.363 312.493 116.123 312.12 114.47 312.12C113.323 312.12 112.19 312.307 111.07 312.68C109.977 313.027 109.043 313.507 108.27 314.12L106.03 309.76C107.203 308.933 108.603 308.293 110.23 307.84C111.883 307.387 113.577 307.16 115.31 307.16ZM114.83 325.12C115.897 325.12 116.843 324.88 117.67 324.4C118.497 323.893 119.083 323.16 119.43 322.2V320H115.15C112.59 320 111.31 320.84 111.31 322.52C111.31 323.32 111.617 323.96 112.23 324.44C112.87 324.893 113.737 325.12 114.83 325.12ZM137.278 310.32C138.024 309.28 139.024 308.493 140.278 307.96C141.558 307.427 143.024 307.16 144.678 307.16V312.92C143.984 312.867 143.518 312.84 143.278 312.84C141.491 312.84 140.091 313.347 139.078 314.36C138.064 315.347 137.558 316.84 137.558 318.84V329H131.318V307.48H137.278V310.32ZM173.712 329.48C170.859 329.48 168.272 328.867 165.952 327.64C163.659 326.387 161.846 324.667 160.512 322.48C159.206 320.267 158.552 317.773 158.552 315C158.552 312.227 159.206 309.747 160.512 307.56C161.846 305.347 163.659 303.627 165.952 302.4C168.272 301.147 170.872 300.52 173.752 300.52C176.179 300.52 178.366 300.947 180.312 301.8C182.286 302.653 183.939 303.88 185.272 305.48L181.112 309.32C179.219 307.133 176.872 306.04 174.072 306.04C172.339 306.04 170.792 306.427 169.432 307.2C168.072 307.947 167.006 309 166.232 310.36C165.486 311.72 165.112 313.267 165.112 315C165.112 316.733 165.486 318.28 166.232 319.64C167.006 321 168.072 322.067 169.432 322.84C170.792 323.587 172.339 323.96 174.072 323.96C176.872 323.96 179.219 322.853 181.112 320.64L185.272 324.48C183.939 326.107 182.286 327.347 180.312 328.2C178.339 329.053 176.139 329.48 173.712 329.48ZM209.546 318.32C209.546 318.4 209.506 318.96 209.426 320H193.146C193.439 321.333 194.133 322.387 195.226 323.16C196.319 323.933 197.679 324.32 199.306 324.32C200.426 324.32 201.413 324.16 202.266 323.84C203.146 323.493 203.959 322.96 204.706 322.24L208.026 325.84C205.999 328.16 203.039 329.32 199.146 329.32C196.719 329.32 194.573 328.853 192.706 327.92C190.839 326.96 189.399 325.64 188.386 323.96C187.373 322.28 186.866 320.373 186.866 318.24C186.866 316.133 187.359 314.24 188.346 312.56C189.359 310.853 190.733 309.533 192.466 308.6C194.226 307.64 196.186 307.16 198.346 307.16C200.453 307.16 202.359 307.613 204.066 308.52C205.773 309.427 207.106 310.733 208.066 312.44C209.053 314.12 209.546 316.08 209.546 318.32ZM198.386 311.88C196.973 311.88 195.786 312.28 194.826 313.08C193.866 313.88 193.279 314.973 193.066 316.36H203.666C203.453 315 202.866 313.92 201.906 313.12C200.946 312.293 199.773 311.88 198.386 311.88ZM213.7 299.32H219.94V329H213.7V299.32ZM225.732 299.32H231.972V329H225.732V299.32ZM245.003 329.32C243.216 329.32 241.469 329.107 239.763 328.68C238.056 328.227 236.696 327.667 235.683 327L237.763 322.52C238.723 323.133 239.883 323.64 241.243 324.04C242.603 324.413 243.936 324.6 245.243 324.6C247.883 324.6 249.203 323.947 249.203 322.64C249.203 322.027 248.843 321.587 248.123 321.32C247.403 321.053 246.296 320.827 244.803 320.64C243.043 320.373 241.589 320.067 240.443 319.72C239.296 319.373 238.296 318.76 237.443 317.88C236.616 317 236.203 315.747 236.203 314.12C236.203 312.76 236.589 311.56 237.363 310.52C238.163 309.453 239.309 308.627 240.803 308.04C242.323 307.453 244.109 307.16 246.163 307.16C247.683 307.16 249.189 307.333 250.683 307.68C252.203 308 253.456 308.453 254.443 309.04L252.363 313.48C250.469 312.413 248.403 311.88 246.163 311.88C244.829 311.88 243.829 312.067 243.163 312.44C242.496 312.813 242.163 313.293 242.163 313.88C242.163 314.547 242.523 315.013 243.243 315.28C243.963 315.547 245.109 315.8 246.683 316.04C248.443 316.333 249.883 316.653 251.003 317C252.123 317.32 253.096 317.92 253.923 318.8C254.749 319.68 255.163 320.907 255.163 322.48C255.163 323.813 254.763 325 253.963 326.04C253.163 327.08 251.989 327.893 250.443 328.48C248.923 329.04 247.109 329.32 245.003 329.32Z" fill="white"/>
<defs>
<linearGradient id="paint0_linear_113_420" x1="315.5" y1="0" x2="315.5" y2="379" gradientUnits="userSpaceOnUse">
<stop stop-color="#5599FF" stop-opacity="0"/>
<stop offset="1" stop-color="#5599FF"/>
</linearGradient>
</defs>
</svg>
