<svg width="1280" height="962" viewBox="0 0 1280 962" fill="none" xmlns="http://www.w3.org/2000/svg">
<mask id="mask0_126_412" style="mask-type:alpha" maskUnits="userSpaceOnUse" x="0" y="275" width="248" height="405">
<rect y="275" width="248" height="405" fill="#D9D9D9"/>
</mask>
<g mask="url(#mask0_126_412)">
<circle cx="44.5" cy="477.5" r="198.5" stroke="#6FB90C" stroke-width="2"/>
<circle cx="44.5" cy="477.5" r="155.012" stroke="#6FB90C" stroke-width="2"/>
<circle cx="44.5" cy="477.5" r="111.525" stroke="#6FB90C" stroke-width="2"/>
<circle cx="44.5" cy="477.5" r="68.0368" stroke="#6FB90C" stroke-width="2"/>
<circle cx="44.5" cy="477.5" r="24.549" stroke="#6FB90C" stroke-width="2"/>
</g>
<circle cx="340.5" cy="242.5" r="49.5" fill="#DCEBFF"/>
<circle cx="106" cy="6" r="6" fill="#DCEBFF"/>
<line x1="243.977" y1="240.616" x2="268.172" y2="216.023" stroke="#5599FF" stroke-width="4" stroke-linecap="round"/>
<line x1="2" y1="-2" x2="36.4993" y2="-2" transform="matrix(0.701311 0.712856 0.712856 -0.701311 244 188)" stroke="#5599FF" stroke-width="4" stroke-linecap="round"/>
<line x1="263.977" y1="240.616" x2="288.172" y2="216.023" stroke="#5599FF" stroke-width="4" stroke-linecap="round"/>
<line x1="2" y1="-2" x2="36.4993" y2="-2" transform="matrix(0.701311 0.712856 0.712856 -0.701311 264 188)" stroke="#5599FF" stroke-width="4" stroke-linecap="round"/>
<line x1="283.977" y1="240.616" x2="308.172" y2="216.023" stroke="#5599FF" stroke-width="4" stroke-linecap="round"/>
<line x1="2" y1="-2" x2="36.4993" y2="-2" transform="matrix(0.701311 0.712856 0.712856 -0.701311 284 188)" stroke="#5599FF" stroke-width="4" stroke-linecap="round"/>
<line x1="303.977" y1="240.616" x2="328.172" y2="216.023" stroke="#5599FF" stroke-width="4" stroke-linecap="round"/>
<line x1="2" y1="-2" x2="36.4993" y2="-2" transform="matrix(0.701311 0.712856 0.712856 -0.701311 304 188)" stroke="#5599FF" stroke-width="4" stroke-linecap="round"/>
<line x1="323.977" y1="240.616" x2="348.172" y2="216.023" stroke="#5599FF" stroke-width="4" stroke-linecap="round"/>
<line x1="2" y1="-2" x2="36.4993" y2="-2" transform="matrix(0.701311 0.712856 0.712856 -0.701311 324 188)" stroke="#5599FF" stroke-width="4" stroke-linecap="round"/>
<rect y="569" width="1280" height="393" fill="#D9D9D9" fill-opacity="0.5"/>
</svg>
